Input #0, matroska,webm, from 'Class HTML - 19⧸09 [198djask1].mkv':
  Metadata:
    COMPATIBLE_BRANDS: iso6avc1mp41
    MAJOR_BRAND     : dash
    MINOR_VERSION   : 0
    ENCODER         : Lavf58.76.100
  Duration: 00:13:50.52, start: -0.007000, bitrate: 575 kb/s
  Stream #0:0: Video: h264 (High), yuv420p(tv, bt709, progressive), 1280x720 [SAR 1:1 DAR 16:9], 60 fps, 60 tbr, 1k tbn, 120 tbc (default)
    Metadata:
      HANDLER_NAME    : ISO Media file produced by Google Inc.
      VENDOR_ID       : [0][0][0][0]
      DURATION        : 00:13:50.500000000
  Stream #0:1(eng): Audio: opus, 48000 Hz, stereo, fltp (default)
    Metadata:
      DURATION        : 00:13:50.521000000
Stream mapping:
  Stream #0:0 -> #0:0 (h264 (native) -> h264 (libx264))
  Stream #0:1 -> #0:1 (opus (native) -> aac (native))
[libx264 @ 0x57fc473d74c0] using SAR=1/1
[libx264 @ 0x57fc473d74c0] using cpu capabilities: MMX2 SSE2Fast LZCNT SSSE3 SSE4.2
[libx264 @ 0x57fc473d74c0] profile High, level 3.1, 4:2:0, 8-bit
[libx264 @ 0x57fc473d74c0] 264 - core 163 r3060 5db6aa6 - H.264/MPEG-4 AVC codec - Copyleft 2003-2021 - http://www.videolan.org/x264.html - options: cabac=1 ref=3 deblock=1:0:0 analyse=0x3:0x113 me=hex subme=7 psy=1 psy_rd=1.00:0.00 mixed_ref=1 me_range=16 chroma_me=1 trellis=1 8x8dct=1 cqm=0 deadzone=21,11 fast_pskip=1 chroma_qp_offset=-2 threads=6 lookahead_threads=1 sliced_threads=0 nr=0 decimate=1 interlaced=0 bluray_compat=0 constrained_intra=0 bframes=3 b_pyramid=2 b_adapt=1 b_bias=0 direct=1 weightb=1 open_gop=0 weightp=2 keyint=250 keyint_min=15 scenecut=40 intra_refresh=0 rc_lookahead=40 rc=crf mbtree=1 crf=23.0 qcomp=0.60 qpmin=0 qpmax=69 qpstep=4 ip_ratio=1.40 aq=1:1.00
Output #0, mp4, to 'bar.mp4':
  Metadata:
    COMPATIBLE_BRANDS: iso6avc1mp41
    MAJOR_BRAND     : dash
    MINOR_VERSION   : 0
    encoder         : Lavf58.76.100
  Stream #0:0: Video: h264 (avc1 / 0x31637661), yuv420p(tv, bt709, progressive), 960x540 [SAR 1:1 DAR 16:9], q=2-31, 15 fps, 15360 tbn (default)
    Metadata:
      HANDLER_NAME    : ISO Media file produced by Google Inc.
      VENDOR_ID       : [0][0][0][0]
      DURATION        : 00:13:50.500000000
      encoder         : Lavc58.134.100 libx264
    Side data:
      cpb: bitrate max/min/avg: 0/0/0 buffer size: 0 vbv_delay: N/A
  Stream #0:1(eng): Audio: aac (LC) (mp4a / 0x6134706D), 22050 Hz, mono, fltp, 69 kb/s (default)
    Metadata:
      DURATION        : 00:13:50.521000000
      encoder         : Lavc58.134.100 aac
frame=    1 fps=0.0 q=0.0 size=       0kB time=00:00:00.00 bitrate=N/A speed=   0x    frame=1
fps=0.00
stream_0_0_q=0.0
bitrate=N/A
total_size=48
out_time_us=0
out_time_ms=0
out_time=00:00:00.000000
dup_frames=0
drop_frames=0
speed=   0x
progress=continue
frame=   32 fps=0.0 q=0.0 size=       0kB time=00:00:01.90 bitrate=   0.2kbits/s dup=0 drop=88 speed= 2.5x    frame=32
fps=0.00
stream_0_0_q=0.0
bitrate=   0.2kbits/s
total_size=48
out_time_us=1904036
out_time_ms=1904036
out_time=00:00:01.904036
dup_frames=0
drop_frames=88
speed= 2.5x
progress=continue
frame=   57 fps= 45 q=27.0 size=       0kB time=00:00:03.62 bitrate=   0.1kbits/s dup=0 drop=164 speed=2.86x    frame=57
fps=45.05
stream_0_0_q=27.0
bitrate=   0.1kbits/s
total_size=48
out_time_us=3622313
out_time_ms=3622313
out_time=00:00:03.622313
dup_frames=0
drop_frames=164
speed=2.86x
progress=continue
frame=   78 fps= 44 q=27.0 size=       0kB time=00:00:05.01 bitrate=   0.1kbits/s dup=0 drop=228 speed=2.83x    frame=78
fps=44.00
stream_0_0_q=27.0
bitrate=   0.1kbits/s
total_size=48
out_time_us=5015510
out_time_ms=5015510
out_time=00:00:05.015510
dup_frames=0
drop_frames=228
speed=2.83x
progress=continue
frame=   98 fps= 43 q=27.0 size=       0kB time=00:00:06.31 bitrate=   0.1kbits/s dup=0 drop=286 speed=2.77x    frame=98
fps=43.05
stream_0_0_q=27.0
bitrate=   0.1kbits/s
total_size=48
out_time_us=6315828
out_time_ms=6315828
out_time=00:00:06.315828
dup_frames=0
drop_frames=286
speed=2.77x
progress=continue
frame=  122 fps= 44 q=27.0 size=       0kB time=00:00:07.94 bitrate=   0.0kbits/s dup=0 drop=358 speed=2.85x    frame=122
fps=43.84
stream_0_0_q=27.0
bitrate=   0.0kbits/s
total_size=48
out_time_us=7941224
out_time_ms=7941224
out_time=00:00:07.941224
dup_frames=0
drop_frames=358
speed=2.85x
progress=continue
frame=  146 fps= 44 q=27.0 size=       0kB time=00:00:09.52 bitrate=   0.0kbits/s dup=0 drop=430 speed=2.89x    frame=146
fps=44.37
stream_0_0_q=27.0
bitrate=   0.0kbits/s
total_size=48
out_time_us=9520181
out_time_ms=9520181
out_time=00:00:09.520181
dup_frames=0
drop_frames=430
speed=2.89x
progress=continue
frame=  170 fps= 45 q=27.0 size=       0kB time=00:00:11.14 bitrate=   0.0kbits/s dup=0 drop=504 speed=2.94x    frame=170
fps=44.83
stream_0_0_q=27.0
bitrate=   0.0kbits/s
total_size=48
out_time_us=11145578
out_time_ms=11145578
out_time=00:00:11.145578
dup_frames=0
drop_frames=504
speed=2.94x
progress=continue
frame=  194 fps= 45 q=27.0 size=       0kB time=00:00:12.72 bitrate=   0.0kbits/s dup=0 drop=574 speed=2.96x    frame=194
fps=45.16
stream_0_0_q=27.0
bitrate=   0.0kbits/s
total_size=48
out_time_us=12724535
out_time_ms=12724535
out_time=00:00:12.724535
dup_frames=0
drop_frames=574
speed=2.96x
progress=continue
frame=  217 fps= 45 q=27.0 size=     256kB time=00:00:14.30 bitrate= 146.6kbits/s dup=0 drop=645 speed=2.98x    frame=217
fps=45.24
stream_0_0_q=27.0
bitrate= 146.6kbits/s
total_size=262192
out_time_us=14303492
out_time_ms=14303492
out_time=00:00:14.303492
dup_frames=0
drop_frames=645
speed=2.98x
progress=continue
frame=  240 fps= 45 q=27.0 size=     256kB time=00:00:15.78 bitrate= 132.8kbits/s dup=0 drop=712 speed=2.96x    frame=240
fps=45.03
stream_0_0_q=27.0
bitrate= 132.8kbits/s
total_size=262192
out_time_us=15789569
out_time_ms=15789569
out_time=00:00:15.789569
dup_frames=0
drop_frames=712
speed=2.96x
progress=continue
frame=  261 fps= 45 q=27.0 size=     256kB time=00:00:17.18 bitrate= 122.1kbits/s dup=0 drop=775 speed=2.95x    frame=261
fps=44.75
stream_0_0_q=27.0
bitrate= 122.1kbits/s
total_size=262192
out_time_us=17182766
out_time_ms=17182766
out_time=00:00:17.182766
dup_frames=0
drop_frames=775
speed=2.95x
progress=continue
frame=  285 fps= 45 q=27.0 size=     256kB time=00:00:18.76 bitrate= 111.8kbits/s dup=0 drop=847 speed=2.96x    frame=285
fps=45.01
stream_0_0_q=27.0
bitrate= 111.8kbits/s
total_size=262192
out_time_us=18761723
out_time_ms=18761723
out_time=00:00:18.761723
dup_frames=0
drop_frames=847
speed=2.96x
progress=continue
frame=  302 fps= 42 q=-1.0 Lsize=     550kB time=00:00:19.96 bitrate= 225.6kbits/s dup=0 drop=898 speed=2.78x    
frame=302
fps=42.03
stream_0_0_q=-1.0
bitrate= 225.6kbits/s
total_size=563108
out_time_us=19969161
out_time_ms=19969161
out_time=00:00:19.969161
dup_frames=0
drop_frames=898
speed=2.78x
progress=end
video:368kB audio:170kB subtitle:0kB other streams:0kB global headers:0kB muxing overhead: 2.251461%
[libx264 @ 0x57fc473d74c0] frame I:2     Avg QP:15.97  size: 49717
[libx264 @ 0x57fc473d74c0] frame P:77    Avg QP:18.95  size:  2203
[libx264 @ 0x57fc473d74c0] frame B:223   Avg QP:25.32  size:   478
[libx264 @ 0x57fc473d74c0] consecutive B-frames:  1.0%  1.3%  1.0% 96.7%
[libx264 @ 0x57fc473d74c0] mb I  I16..4: 37.0% 26.8% 36.2%
[libx264 @ 0x57fc473d74c0] mb P  I16..4:  0.1%  0.5%  0.4%  P16..4:  2.1%  1.7%  1.4%  0.0%  0.0%    skip:93.8%
[libx264 @ 0x57fc473d74c0] mb B  I16..4:  0.0%  0.1%  0.1%  B16..8:  2.7%  1.0%  0.4%  direct: 0.2%  skip:95.6%  L0:38.6% L1:48.1% BI:13.3%
[libx264 @ 0x57fc473d74c0] 8x8 transform intra:36.1% inter:49.9%
[libx264 @ 0x57fc473d74c0] coded y,uvDC,uvAC intra: 46.2% 47.7% 37.9% inter: 1.2% 1.0% 0.3%
[libx264 @ 0x57fc473d74c0] i16 v,h,dc,p: 59% 41%  0%  0%
[libx264 @ 0x57fc473d74c0] i8 v,h,dc,ddl,ddr,vr,hd,vl,hu: 43% 10% 21%  2%  5%  4%  6%  3%  5%
[libx264 @ 0x57fc473d74c0] i4 v,h,dc,ddl,ddr,vr,hd,vl,hu: 31% 24% 11%  4%  7%  5%  7%  4%  6%
[libx264 @ 0x57fc473d74c0] i8c dc,h,v,p: 55% 26% 15%  4%
[libx264 @ 0x57fc473d74c0] Weighted P-Frames: Y:0.0% UV:0.0%
[libx264 @ 0x57fc473d74c0] ref P L0: 65.6% 15.4% 11.1%  7.9%
[libx264 @ 0x57fc473d74c0] ref B L0: 87.4% 10.1%  2.5%
[libx264 @ 0x57fc473d74c0] ref B L1: 95.1%  4.9%
[libx264 @ 0x57fc473d74c0] kb/s:149.28
[aac @ 0x57fc474456c0] Qavg: 136.074
